<svg xmlns="http://www.w3.org/2000/svg" viewBox="-23 -23 46 46"><path fill="#ed8a0a" d="M-17.286 9.854v-5.82l5.286 -2.91l5.286 2.91v5.82l-5.286 2.91z"/><path fill="#000" opacity=".2" d="M-12 6.944v5.82l-5.286 -2.91v-5.82z"/><path fill="#000" opacity=".5" d="M-12 6.944v5.82l5.286 -2.91v-5.82z"/><path fill="#ed8a0a" d="M6.714 9.854v-5.82l5.286 -2.91l5.286 2.91v5.82l-5.286 2.91z"/><path fill="#000" opacity=".2" d="M12 6.944v5.82l-5.286 -2.91v-5.82z"/><path fill="#000" opacity=".5" d="M12 6.944v5.82l5.286 -2.91v-5.82z"/><path fill="#ed8a0a" d="M-11.286 13.472v-5.82l5.286 -2.91l5.286 2.91v5.82l-5.286 2.91z"/><path fill="#000" opacity=".2" d="M-6 10.562v5.82l-5.286 -2.91v-5.82z"/><path fill="#000" opacity=".5" d="M-6 10.562v5.82l5.286 -2.91v-5.82z"/><path fill="#ed8a0a" d="M6.714 2.91v-5.82l5.286 -2.91l5.286 2.91v5.82l-5.286 2.91z"/><path fill="#000" opacity=".2" d="M12 0v5.82l-5.286 -2.91v-5.82z"/><path fill="#000" opacity=".5" d="M12 0v5.82l5.286 -2.91v-5.82z"/><path fill="#ed8a0a" d="M-5.286 -11.27v-5.82l5.286 -2.91l5.286 2.91v5.82l-5.286 2.91z"/><path fill="#000" opacity=".2" d="M0 -14.18v5.82l-5.286 -2.91v-5.82z"/><path fill="#000" opacity=".5" d="M0 -14.18v5.82l5.286 -2.91v-5.82z"/><path fill="#ed8a0a" d="M0.714 -7.652v-5.82l5.286 -2.91l5.286 2.91v5.82l-5.286 2.91z"/><path fill="#000" opacity=".2" d="M6 -10.562v5.82l-5.286 -2.91v-5.82z"/><path fill="#000" opacity=".5" d="M6 -10.562v5.82l5.286 -2.91v-5.82z"/><path fill="#ed8a0a" d="M-11.286 -7.652v-5.82l5.286 -2.91l5.286 2.91v5.82l-5.286 2.91z"/><path fill="#000" opacity=".2" d="M-6 -10.562v5.82l-5.286 -2.91v-5.82z"/><path fill="#000" opacity=".5" d="M-6 -10.562v5.82l5.286 -2.91v-5.82z"/><path fill="#ed8a0a" d="M6.714 -4.034v-5.82l5.286 -2.91l5.286 2.91v5.82l-5.286 2.91z"/><path fill="#000" opacity=".2" d="M12 -6.944v5.82l-5.286 -2.91v-5.82z"/><path fill="#000" opacity=".5" d="M12 -6.944v5.82l5.286 -2.91v-5.82z"/><path fill="#ed8a0a" d="M-17.286 2.91v-5.82l5.286 -2.91l5.286 2.91v5.82l-5.286 2.91z"/><path fill="#000" opacity=".2" d="M-12 0v5.82l-5.286 -2.91v-5.82z"/><path fill="#000" opacity=".5" d="M-12 0v5.82l5.286 -2.91v-5.82z"/><path fill="#ed8a0a" d="M-17.286 -4.034v-5.82l5.286 -2.91l5.286 2.91v5.82l-5.286 2.91z"/><path fill="#000" opacity=".2" d="M-12 -6.944v5.82l-5.286 -2.91v-5.82z"/><path fill="#000" opacity=".5" d="M-12 -6.944v5.82l5.286 -2.91v-5.82z"/><path fill="#ed8a0a" d="M0.714 13.472v-5.82l5.286 -2.91l5.286 2.91v5.82l-5.286 2.91z"/><path fill="#000" opacity=".2" d="M6 10.562v5.82l-5.286 -2.91v-5.82z"/><path fill="#000" opacity=".5" d="M6 10.562v5.82l5.286 -2.91v-5.82z"/><path fill="#ed8a0a" d="M-5.286 17.09v-5.82l5.286 -2.91l5.286 2.91v5.82l-5.286 2.91z"/><path fill="#000" opacity=".2" d="M0 14.18v5.82l-5.286 -2.91v-5.82z"/><path fill="#000" opacity=".5" d="M0 14.18v5.82l5.286 -2.91v-5.82z"/></svg>
