<svg width="18px" height="18px" viewBox="0 0 18 18" version="1.1"  xmlns="http://www.w3.org/2000/svg" xmlns:xlink="http://www.w3.org/1999/xlink"><g transform="translate(-980.000000, -597.000000)" fill="#8e8e93" stroke="none" stroke-width="1"><path fill="#8e8e93" d="M987.609341,610.601926 C984.319308,610.601926 981.64274,607.920009 981.64274,604.623598 C981.64274,601.327188 984.319308,598.645722 987.609341,598.645722 C990.899375,598.645722 993.575943,601.327188 993.575943,604.623598 C993.575943,607.920009 990.899375,610.601926 987.609341,610.601926 Z M997.817828,613.654978 L993.538598,609.399127 C994.62389,608.048235 995.218683,606.361427 995.218683,604.623598 C995.218683,600.420122 991.805227,597 987.609341,597 C983.413911,597 980,600.420122 980,604.623598 C980,608.827527 983.413911,612.247648 987.609341,612.247648 C989.344534,612.247648 991.028262,611.651215 992.377249,610.563549 L996.657845,614.819851 L996.838651,615 L997.018546,614.8194 L997.818738,614.017985 L998,613.83603 L997.817828,613.654978 Z" id="Fill-31" ></path></g></svg>