<?xml version="1.0" encoding="UTF-8"?><svg width="157px" height="27px" viewBox="0 0 157 27" version="1.1" xmlns="http://www.w3.org/2000/svg" xmlns:xlink="http://www.w3.org/1999/xlink"><defs><polygon id="path-1" points="0 26.3097558 156.854202 26.3097558 156.854202 0 0 0"></polygon></defs><g id="Page-1" stroke="none" stroke-width="1" fill="none" fill-rule="evenodd"><g id="搜一搜与二维码-copy-4" transform="translate(-972.000000, -549.000000)"><g id="样式-A" transform="translate(848.000000, 531.000000)"><g id="logo-2" transform="translate(124.000000, 18.000000)"><g id="logo" transform="translate(0.000000, 0.000000)"><path d="M11.8387099,0 C5.30022531,0 0,4.47225761 0,9.98894566 C0,12.9986331 1.59459614,15.7078112 4.09032663,17.5388958 C4.29113779,17.6836365 4.42196238,17.921195 4.42196238,18.1899992 C4.42196238,18.2786816 4.4032078,18.3595526 4.37987894,18.444559 C4.1808975,19.1976701 3.86206976,20.4029235 3.84651718,20.4594413 C3.82181604,20.5540971 3.78339204,20.6524289 3.78339204,20.7516797 C3.78339204,20.9722369 3.95950205,21.1509802 4.1776955,21.1509802 C4.26369208,21.1509802 4.33322123,21.1188156 4.40549495,21.0765421 L6.99774288,19.5615895 C7.19260747,19.4480944 7.39890777,19.3777918 7.62624979,19.3777918 C7.74746837,19.3777918 7.86411267,19.3957121 7.97435296,19.4301742 C9.18333678,19.7821468 10.4874657,19.9778913 11.8387099,19.9778913 C12.0569033,19.9778913 12.2737245,19.9719179 12.4887159,19.9622685 C12.231641,19.1829663 12.0912105,18.3623095 12.0912105,17.5140831 C12.0912105,12.4830805 16.925316,8.40414997 22.8888128,8.40414997 C23.1047191,8.40414997 23.160068,8.41104238 23.3723148,8.42161075 C22.4807865,3.64930339 17.7450281,0 11.8387099,0 M7.89293067,8.2093244 C7.11941889,8.2093244 6.49228427,7.57476284 6.49228427,6.79224411 C6.49228427,6.00972539 7.11941889,5.37516382 7.89293067,5.37516382 C8.66552759,5.37516382 9.29220479,6.00972539 9.29220479,6.79224411 C9.29220479,7.57476284 8.66552759,8.2093244 7.89293067,8.2093244 M15.7849465,8.2093244 C15.0118921,8.2093244 14.3856724,7.57476284 14.3856724,6.79224411 C14.3856724,6.00972539 15.0118921,5.37562332 15.7849465,5.37562332 C16.5580008,5.37562332 17.184678,6.00972539 17.184678,6.79224411 C17.184678,7.57476284 16.5580008,8.2093244 15.7849465,8.2093244" id="Fill-1" fill="#FFFFFF"></path><path d="M29.3117013,23.8305363 C31.392106,22.3114962 32.7212408,20.0649448 32.7212408,17.569183 C32.7212408,12.9942293 28.3032976,9.28579617 22.8531588,9.28579617 C17.4034776,9.28579617 12.9846194,12.9942293 12.9846194,17.569183 C12.9846194,22.1441366 17.4034776,25.853027 22.8531588,25.853027 C23.9786912,25.853027 25.0662482,25.6906974 26.0741945,25.3989612 C26.1657012,25.3706106 26.2631558,25.3550636 26.3642707,25.3550636 C26.5536896,25.3550636 26.7257222,25.4131365 26.8881465,25.5077907 L29.0481621,26.7643596 C29.109014,26.7986546 29.1671208,26.8256334 29.238496,26.8256334 C29.4205943,26.8256334 29.5679201,26.677479 29.5679201,26.4945723 C29.5679201,26.4122643 29.5349777,26.3308708 29.5143887,26.2522209 C29.5020353,26.2051224 29.2357508,25.2055374 29.0696661,24.5813683 C29.0509073,24.5109492 29.0348936,24.4432737 29.0348936,24.3705683 C29.0348936,24.1478794 29.1442441,23.9503402 29.3117013,23.8305363 M19.5634932,16.1594296 C18.8831409,16.1594296 18.3313555,15.6038506 18.3313555,14.9184077 C18.3313555,14.2329649 18.8831409,13.6773858 19.5634932,13.6773858 C20.244303,13.6773858 20.7956308,14.2329649 20.7956308,14.9184077 C20.7956308,15.6038506 20.244303,16.1594296 19.5634932,16.1594296 M26.142367,16.1594296 C25.4620147,16.1594296 24.9106869,15.6038506 24.9106869,14.9184077 C24.9106869,14.2329649 25.4620147,13.6773858 26.142367,13.6773858 C26.8231768,13.6773858 27.3745046,14.2329649 27.3745046,14.9184077 C27.3745046,15.6038506 26.8231768,16.1594296 26.142367,16.1594296" id="Fill-3" fill="#FFFFFF"></path><path d="M69.0820908,2.57938783 L70.6363293,3.2003484 C70.1668804,4.8834065 69.6925087,6.2596263 69.0892511,7.73782204 L69.0892511,23.2144904 L67.4575916,23.2144904 L67.4575916,11.0575028 C66.8762625,12.0353791 66.3495309,12.8398053 65.6567693,13.7944639 L64.403712,12.6153672 C66.4542507,9.88295857 68.1830222,6.38846196 69.0820908,2.57938783" id="Fill-5" fill="#FFFFFF"></path><path d="M78.0177937,2.57938783 C78.3652713,3.2077885 79.1404851,4.66303217 79.6039433,5.59375459 L85.6984878,5.59375459 L85.6984878,7.22228591 L70.6363293,7.22228591 L70.6363293,5.59375459 L77.634594,5.59375459 C77.194332,4.77948892 76.7740185,3.98525383 76.4729331,3.47284408 L78.0177937,2.57938783 Z" id="Fill-7" fill="#FFFFFF"></path><mask id="mask-2" fill="white"><use xlink:href="#path-1"></use></mask><polygon id="Fill-9" fill="#FFFFFF" mask="url(#mask-2)" points="72.7138684 10.3175513 84.1403334 10.3175513 84.1403334 8.76991861 72.7138684 8.76991861"></polygon><polygon id="Fill-11" fill="#FFFFFF" mask="url(#mask-2)" points="72.7138684 13.9286943 84.1403334 13.9286943 84.1403334 12.3810616 72.7138684 12.3810616"></polygon><path d="M74.432058,21.2408702 L82.4221439,21.2408702 L82.4221439,17.4649119 L74.432058,17.4649119 L74.432058,21.2408702 Z M72.7138684,15.9922045 L72.7138684,22.6986129 L74.432058,22.6986129 L82.4221439,22.6986129 L84.1403334,22.6986129 L84.1403334,15.9922045 L72.7138684,15.9922045 Z" id="Fill-12" fill="#FFFFFF" mask="url(#mask-2)"></path><path d="M43.8315604,7.73816348 L45.1864754,8.50896246 C44.7657795,9.42011452 44.4776943,9.99844235 43.8932929,10.9799995 L43.9070113,23.2144904 L42.364155,23.2144904 L42.3504366,13.3166268 C41.7193928,14.1811469 41.3211036,14.6854122 40.6900599,15.3862633 L39.4732428,14.2510949 C41.0554251,12.6093753 42.7798208,10.0281588 43.8315604,7.73816348" id="Fill-13" fill="#FFFFFF" mask="url(#mask-2)"></path><path d="M43.7287031,2.57938783 L45.1864754,3.37657481 C44.1346532,5.1860414 42.3176993,7.56819206 40.716348,9.28579617 L39.4732428,8.18658331 C41.0268904,6.56039355 42.7722885,4.29699194 43.7287031,2.57938783" id="Fill-14" fill="#FFFFFF" mask="url(#mask-2)"></path><polygon id="Fill-15" fill="#FFFFFF" mask="url(#mask-2)" points="45.7058601 11.865184 52.977247 11.865184 52.977247 10.3175513 45.7058601 10.3175513"></polygon><polygon id="Fill-16" fill="#FFFFFF" mask="url(#mask-2)" points="47.6408686 4.24659621 47.6408686 7.85888104 49.0748115 7.85888104 49.0748115 2.57938783 50.5797417 2.57938783 50.5797417 7.85888104 52.0136847 7.85888104 52.0136847 4.24195734 53.4966318 4.24613232 53.4966318 9.28579617 46.2252449 9.28579617 46.2252449 4.24613232"></polygon><path d="M53.9659548,16.2275204 C53.9659548,16.2275204 52.7931578,17.3507589 52.460472,17.6382898 L52.460472,13.4128167 L46.1743889,13.4128167 L46.1730273,16.6795499 C46.1730273,19.0335663 45.6501704,20.0647585 44.6670906,21.130582 L45.7949546,22.1827353 C47.3267618,20.5163323 47.651278,19.1925968 47.651278,16.9980666 L47.651278,14.9270243 L50.9735977,14.9265686 C50.9735977,14.9265686 51.0366855,18.5532849 50.9254876,19.1073856 L51.930807,20.0506326 C51.930807,20.0506326 54.3195186,17.8729623 55.0547861,17.2495991 L53.9659548,16.2275204 Z" id="Fill-17" fill="#FFFFFF" mask="url(#mask-2)"></path><path d="M57.904002,15.012726 C57.1241902,13.1548779 56.7772989,12.1057831 56.3046016,10.1081166 C56.5372501,9.33226171 56.7629607,8.09263013 56.8517649,7.06592458 L59.1851874,7.06592458 C59.0686319,10.4622318 58.6301612,13.118781 57.904002,15.012726 M58.8008318,16.7942681 C59.8919207,14.4584787 60.5130875,11.2463113 60.5685901,7.06501074 L61.6148144,7.06683843 L61.6148144,5.49822243 L57.076088,5.50370551 C57.1352908,4.63692294 57.1163274,3.64540045 57.1163274,3.09526539 L55.655221,3.09526539 C55.6737219,5.32002254 55.42211,7.44242898 55.0941821,8.93428194 C54.7278648,10.5979379 54.1450873,12.2140738 53.4966318,13.1754394 L54.6348979,14.1806696 C54.9600507,13.6721145 55.2352512,13.1672148 55.5761298,12.4411645 C56.1644575,14.5526048 56.4271699,15.1319829 57.1519415,16.7403512 C56.1126551,18.8591022 54.8134313,20.7324857 53.6201251,22.1375234 L54.8532082,23.2144904 C55.4549491,22.4797586 56.7883994,20.7155796 58.0214825,18.357401 C58.5755836,19.3818219 59.7369759,21.1738732 61.0958649,23.1802212 L62.3261729,21.9424173 C61.2225959,20.5743904 59.6934988,18.4798563 58.8008318,16.7942681" id="Fill-18" fill="#FFFFFF" mask="url(#mask-2)"></path><path d="M101.757114,18.8526211 C103.02045,18.1528567 104.039462,17.2790553 105.103396,16.1426163 L98.5657698,16.1426163 C99.5632368,17.2790553 100.560704,18.1528567 101.757114,18.8526211 M99.917576,4.07846146 L100.493778,5.43368988 C99.4303023,5.82696831 98.3219038,6.17639845 97.5462999,6.35133955 L97.5462999,8.25263732 L100.272374,8.25263732 L100.272374,9.54231934 L97.5462999,9.54231934 L97.5462999,11.5530118 L101.025975,11.5530118 L101.025975,3.09526539 L102.577182,3.09526539 L102.577182,11.5530118 L106.16733,11.5530118 L106.16733,9.54231934 L103.308322,9.54231934 L103.308322,8.25263732 L106.16733,8.25263732 L106.16733,6.2423969 L103.264316,6.2423969 L103.264316,4.86547036 L107.674532,4.86547036 L107.674532,12.9516365 L102.577182,12.9516365 L102.577182,14.809086 L107.142336,14.809086 L107.142336,16.1204661 C105.989931,17.6067873 104.837527,18.7215283 103.374789,19.6391779 C104.859988,20.2512457 106.677065,20.6662223 109.070803,21.0595007 L108.605074,22.6552166 C105.679598,22.0869971 103.508182,21.4532312 101.71265,20.5134313 C99.895573,21.3438365 97.6352284,22.0214507 94.5768186,22.6986129 L94.0670836,21.1471973 C96.6597644,20.6662223 98.6102341,20.2078495 100.161442,19.5957817 C98.9645733,18.7649245 97.9010974,17.7595783 96.8371632,16.4920464 L97.3028922,16.1426163 L95.8841604,16.1426163 L95.8841604,14.809086 L101.025975,14.809086 L101.025975,12.9516365 L96.0615592,12.9516365 L96.0615592,5.19320238 C97.1474964,4.97486505 98.5877728,4.55943646 99.917576,4.07846146 M91.7178104,12.7766954 L91.7178104,8.66806592 L89.169594,8.66806592 L89.169594,7.09450016 L91.7178104,7.09450016 L91.7178104,3.13866163 L93.2470154,3.13866163 L93.2470154,7.09450016 L95.3524225,7.09450016 L95.3524225,8.66806592 L93.2470154,8.66806592 L93.2470154,12.0995332 L95.0420893,11.3125243 L95.241491,12.9294863 C94.6877501,13.1704258 93.9786134,13.4547616 93.2470154,13.7824937 L93.2470154,20.2729438 C93.2470154,21.912056 92.7597417,22.3274846 90.8537363,22.3274846 L89.4354629,22.3274846 L89.1251297,20.7751649 L90.4104686,20.7751649 C91.4964058,20.7751649 91.7178104,20.5568276 91.7178104,19.6825742 L91.7178104,14.4158075 L89.0141981,15.5960949 L88.8147964,13.9574347 C89.5683974,13.673099 90.6318732,13.2359723 91.7178104,12.7766954" id="Fill-19" fill="#FFFFFF" mask="url(#mask-2)"></path><polygon id="Fill-20" fill="#FFFFFF" mask="url(#mask-2)" points="113.225881 13.4128167 131.923733 13.4128167 131.923733 11.3493064 113.225881 11.3493064"></polygon><path d="M149.540348,18.8526211 C150.804171,18.1528567 151.823205,17.2790553 152.887164,16.1426163 L146.349848,16.1426163 C147.346879,17.2790553 148.34391,18.1528567 149.540348,18.8526211 M147.701226,4.07846146 L148.277442,5.43368988 C147.213483,5.82696831 146.105518,6.17639845 145.329897,6.35133955 L145.329897,8.25263732 L148.055574,8.25263732 L148.055574,9.54231934 L145.329897,9.54231934 L145.329897,11.5530118 L148.809192,11.5530118 L148.809192,3.09526539 L150.360435,3.09526539 L150.360435,11.5530118 L153.951122,11.5530118 L153.951122,9.54231934 L151.092049,9.54231934 L151.092049,8.25263732 L153.951122,8.25263732 L153.951122,6.2423969 L151.047584,6.2423969 L151.047584,4.86547036 L155.4579,4.86547036 L155.4579,12.9516365 L150.360435,12.9516365 L150.360435,14.809086 L154.92615,14.809086 L154.92615,16.1204661 C153.773261,17.6067873 152.621289,18.7215283 151.15806,19.6391779 C152.643292,20.2512457 154.460869,20.6662223 156.854202,21.0595007 L156.388462,22.6552166 C153.463379,22.0869971 151.291456,21.4532312 149.496341,20.5134313 C147.679223,21.3438365 145.418369,22.0214507 142.35989,22.6986129 L141.850143,21.1471973 C144.443341,20.6662223 146.393855,20.2078495 147.945098,19.5957817 C146.748202,18.7649245 145.684702,17.7595783 144.620744,16.4920464 L145.086025,16.1426163 L143.66772,16.1426163 L143.66772,14.809086 L148.809192,14.809086 L148.809192,12.9516365 L143.845122,12.9516365 L143.845122,5.19320238 C144.931084,4.97486505 146.370935,4.55943646 147.701226,4.07846146 M139.501275,12.7766954 L139.501275,8.66806592 L136.952543,8.66806592 L136.952543,7.09450016 L139.501275,7.09450016 L139.501275,3.13866163 L141.030515,3.13866163 L141.030515,7.09450016 L143.13597,7.09450016 L143.13597,8.66806592 L141.030515,8.66806592 L141.030515,12.0995332 L142.825629,11.3125243 L143.025036,12.9294863 C142.470824,13.1704258 141.761671,13.4547616 141.030515,13.7824937 L141.030515,20.2729438 C141.030515,21.912056 140.54323,22.3274846 138.636723,22.3274846 L137.218418,22.3274846 L136.908078,20.7751649 L138.193446,20.7751649 C139.279407,20.7751649 139.501275,20.5568276 139.501275,19.6825742 L139.501275,14.4158075 L136.797602,15.5960949 L136.598196,13.9574347 C137.351355,13.673099 138.415314,13.2359723 139.501275,12.7766954" id="Fill-21" fill="#FFFFFF" mask="url(#mask-2)"></path></g></g></g></g></g></svg>